<svg width="102" height="52" viewBox="0 0 102 52" fill="none" xmlns="http://www.w3.org/2000/svg">
<rect x="0.5" y="0.5" width="101" height="51" rx="25.5" stroke="#028090"/>
<circle cx="76" cy="26" r="20" fill="#028090"/>
<path d="M76.1197 26.78C76.0497 26.77 75.9597 26.77 75.8797 26.78C74.1197 26.72 72.7197 25.28 72.7197 23.51C72.7197 21.7 74.1797 20.23 75.9997 20.23C77.8097 20.23 79.2797 21.7 79.2797 23.51C79.2697 25.28 77.8797 26.72 76.1197 26.78Z" fill="white" stroke="white" stroke-width="1.5" stroke-linecap="round" stroke-linejoin="round"/>
<path d="M82.7398 33.3801C80.9598 35.0101 78.5998 36.0001 75.9998 36.0001C73.3998 36.0001 71.0398 35.0101 69.2598 33.3801C69.3598 32.4401 69.9598 31.5201 71.0298 30.8001C73.7698 28.9801 78.2498 28.9801 80.9698 30.8001C82.0398 31.5201 82.6398 32.4401 82.7398 33.3801Z" fill="white" stroke="white" stroke-width="1.5" stroke-linecap="round" stroke-linejoin="round"/>
<path d="M76 36C81.5228 36 86 31.5228 86 26C86 20.4772 81.5228 16 76 16C70.4772 16 66 20.4772 66 26C66 31.5228 70.4772 36 76 36Z" stroke="white" stroke-width="1.5" stroke-linecap="round" stroke-linejoin="round"/>
<path d="M20 21H38" stroke="#292D32" stroke-width="1.5" stroke-linecap="round"/>
<path d="M20 26H38" stroke="#292D32" stroke-width="1.5" stroke-linecap="round"/>
<path d="M20 31H38" stroke="#292D32" stroke-width="1.5" stroke-linecap="round"/>
</svg>
