<svg width="161" height="41" viewBox="0 0 161 41" fill="none" xmlns="http://www.w3.org/2000/svg">
<path d="M56.5337 0.12793H67.8075L74.4289 25.1802H68.8822L67.4504 19.6335H56.8925L55.4608 25.1802H49.9141L56.5337 0.12793ZM66.1972 14.6223L63.6925 5.13914H60.6505L58.1458 14.6223H66.1972Z" fill="black"/>
<path d="M75.0713 6.92801H80.0825V9.25417H80.261C80.6424 8.72994 81.1084 8.25268 81.6571 7.8224C82.1343 7.46539 82.7243 7.13658 83.4289 6.83782C84.1317 6.53906 84.9866 6.39062 85.9881 6.39062C87.1568 6.39062 88.2485 6.61798 89.2631 7.07081C90.2778 7.52364 91.1646 8.16811 91.9294 9.00425C92.6922 9.84039 93.2954 10.8532 93.7369 12.0463C94.1785 13.2394 94.3983 14.5754 94.3983 16.0541C94.3983 17.5348 94.1785 18.8688 93.7369 20.062C93.2954 21.2551 92.6922 22.2698 91.9294 23.104C91.1646 23.9402 90.2778 24.5828 89.2631 25.0375C88.2485 25.4903 87.1568 25.7176 85.9881 25.7176C84.9866 25.7176 84.1335 25.5692 83.4289 25.2705C82.7243 24.9717 82.1343 24.6448 81.6571 24.2859C81.1084 23.8556 80.6424 23.3802 80.261 22.8541H80.0825V31.9802H75.0713V6.92801ZM84.7348 21.4223C85.9993 21.4223 87.0609 20.9564 87.9196 20.0263C88.7783 19.0962 89.2086 17.7715 89.2086 16.0541C89.2086 14.3368 88.7783 13.0121 87.9196 12.082C87.0609 11.1519 85.9993 10.6859 84.7348 10.6859C83.3744 10.6859 82.2584 11.1519 81.3884 12.082C80.5166 13.0121 80.0825 14.3368 80.0825 16.0541C80.0825 17.7715 80.5184 19.0962 81.3884 20.0263C82.2584 20.9564 83.3744 21.4223 84.7348 21.4223Z" fill="black"/>
<path d="M103.451 25.7158C102.283 25.7158 101.191 25.4885 100.176 25.0356C99.1616 24.5828 98.2728 23.9383 97.51 23.1022C96.7471 22.2679 96.144 21.2533 95.7024 20.0602C95.2609 18.867 95.041 17.531 95.041 16.0523C95.041 14.5736 95.2609 13.2376 95.7024 12.0445C96.144 10.8513 96.7452 9.83858 97.51 9.00244C98.2728 8.16818 99.1616 7.52369 100.176 7.06898C101.191 6.61615 102.281 6.38879 103.451 6.38879C104.453 6.38879 105.306 6.53723 106.01 6.83599C106.713 7.13474 107.305 7.46168 107.782 7.82056C108.331 8.25085 108.797 8.7281 109.178 9.25234H109.357V6.92618H114.368V25.1785H109.357V22.8523H109.178C108.797 23.3765 108.331 23.8538 107.782 24.2841C107.305 24.6411 106.715 24.9699 106.01 25.2686C105.308 25.5674 104.455 25.7158 103.451 25.7158ZM104.705 21.4224C106.065 21.4224 107.179 20.9564 108.051 20.0263C108.921 19.0962 109.357 17.7716 109.357 16.0542C109.357 14.3368 108.921 13.0121 108.051 12.082C107.179 11.152 106.065 10.686 104.705 10.686C103.44 10.686 102.378 11.152 101.52 12.082C100.661 13.0121 100.231 14.3368 100.231 16.0542C100.231 17.7716 100.661 19.0962 101.52 20.0263C102.378 20.9564 103.44 21.4224 104.705 21.4224Z" fill="black"/>
<path d="M128.361 6.39062V6.92801H128.79V6.39062H128.361Z" fill="black"/>
<path d="M141.065 20.8851V25.1804H130.687V11.2216H126.106C124.746 11.2216 123.69 11.5974 122.938 12.3471C122.187 13.0949 121.811 14.1114 121.811 15.391V25.1804H116.802V6.92815H121.811V9.61131H121.991C122.206 9.04011 122.527 8.53842 122.957 8.10814C123.314 7.72671 123.791 7.34526 124.389 6.96384C124.985 6.58241 125.736 6.39076 126.644 6.39076H128.361V6.92815H128.79V6.39076H130.687V2.9917H135.697V6.39076H140.886V11.2216H135.697V20.8851H141.065Z" fill="black"/>
<path d="M151.192 25.7157C149.807 25.7157 148.512 25.4658 147.308 24.9641C146.103 24.4624 145.059 23.7785 144.176 22.9067C143.292 22.0367 142.601 21.0108 142.099 19.8289C141.598 18.6489 141.348 17.39 141.348 16.0541C141.348 14.7181 141.598 13.4592 142.099 12.2792C142.601 11.0993 143.292 10.0733 144.176 9.2015C145.059 8.33154 146.101 7.64385 147.308 7.14404C148.512 6.64236 149.807 6.39246 151.192 6.39246C152.623 6.39246 153.929 6.64236 155.111 7.14404C156.293 7.64573 157.311 8.33717 158.172 9.22029C159.031 10.1034 159.692 11.1293 160.158 12.298C160.624 13.4667 160.855 14.72 160.855 16.056V17.1289H146.539C146.635 17.702 146.819 18.2506 147.094 18.7748C147.368 19.3009 147.714 19.7594 148.131 20.1521C148.548 20.5467 149.019 20.8567 149.544 21.0822C150.068 21.3096 150.617 21.4223 151.19 21.4223C152.001 21.4223 152.663 21.3096 153.176 21.0822C153.689 20.8548 154.111 20.6106 154.446 20.3494C154.803 20.0394 155.09 19.6824 155.305 19.2765H160.673C160.291 20.4697 159.694 21.5425 158.884 22.4971C158.527 22.9029 158.108 23.2975 157.631 23.6771C157.153 24.0585 156.605 24.4042 155.985 24.7143C155.365 25.0243 154.655 25.2685 153.856 25.447C153.059 25.6274 152.171 25.7157 151.192 25.7157ZM155.487 14.0849C155.391 13.6321 155.224 13.2018 154.985 12.796C154.747 12.3901 154.442 12.0331 154.072 11.7231C153.702 11.4131 153.272 11.1631 152.783 10.9715C152.295 10.7817 151.763 10.6859 151.19 10.6859C150.021 10.6859 149.048 11.026 148.274 11.7062C147.498 12.3863 146.979 13.1793 146.716 14.0868H155.487V14.0849Z" fill="black"/>
<path d="M46.9016 7.77916V4.85186H37.3534C35.9282 4.85186 34.7719 6.00823 34.7719 7.43347V19.0375C34.7719 21.2512 32.9766 23.0464 30.763 23.0464H16.1386C13.9249 23.0464 12.1297 21.2512 12.1297 19.0375L12.1297 7.43347C12.1297 6.00823 10.9733 4.85186 9.54811 4.85186H0L0 7.77916C0 9.42273 0.652979 10.9996 1.81541 12.162L20.3496 30.6962C22.0619 32.4085 24.8417 32.4085 26.554 30.6962L45.0882 12.162C46.2486 10.9996 46.9016 9.42273 46.9016 7.77916Z" fill="#028090"/>
<path d="M30.6255 -5.14984e-05L16.2761 -5.14984e-05C15.3259 -5.14984e-05 14.5557 0.770187 14.5557 1.72035V8.18548C14.5557 9.13564 15.3259 9.90588 16.2761 9.90588L30.6255 9.90588C31.5757 9.90588 32.3459 9.13564 32.3459 8.18548V1.72035C32.3459 0.770187 31.5757 -5.14984e-05 30.6255 -5.14984e-05Z" fill="#028090"/>
<path d="M75.1582 33.7687H76.4621V38.6365H79.461V39.8535H75.1582V33.7687Z" fill="black"/>
<path d="M82.6799 40.0273C82.2801 40.0273 81.9179 39.9665 81.5934 39.8448C81.2747 39.7231 81.0023 39.5521 80.7763 39.3319C80.5503 39.1117 80.3764 38.8451 80.2547 38.5322C80.133 38.2135 80.0722 37.8571 80.0722 37.463V33.7687H81.3761V37.463C81.3761 37.8803 81.4949 38.2106 81.7325 38.454C81.9701 38.6916 82.2859 38.8104 82.6799 38.8104C83.074 38.8104 83.3898 38.6916 83.6274 38.454C83.865 38.2106 83.9838 37.8803 83.9838 37.463V33.7687H85.2877V37.463C85.2877 37.8571 85.2269 38.2135 85.1052 38.5322C84.9835 38.8451 84.8096 39.1117 84.5836 39.3319C84.3576 39.5521 84.0823 39.7231 83.7578 39.8448C83.4391 39.9665 83.0798 40.0273 82.6799 40.0273Z" fill="black"/>
<path d="M87.4585 36.8545L85.9807 33.7687H87.3715L88.5016 36.2461H88.9362L90.0662 33.7687H91.457L89.9793 36.8545L91.5439 39.8535H90.1357L88.9362 37.463H88.5016L87.302 39.8535H85.8938L87.4585 36.8545Z" fill="black"/>
<path d="M94.7595 40.0273C94.3596 40.0273 93.9974 39.9665 93.6729 39.8448C93.3542 39.7231 93.0818 39.5521 92.8558 39.3319C92.6298 39.1117 92.456 38.8451 92.3343 38.5322C92.2126 38.2135 92.1517 37.8571 92.1517 37.463V33.7687H93.4556V37.463C93.4556 37.8803 93.5744 38.2106 93.812 38.454C94.0496 38.6916 94.3654 38.8104 94.7595 38.8104C95.1535 38.8104 95.4694 38.6916 95.707 38.454C95.9446 38.2106 96.0634 37.8803 96.0634 37.463V33.7687H97.3672V37.463C97.3672 37.8571 97.3064 38.2135 97.1847 38.5322C97.063 38.8451 96.8892 39.1117 96.6631 39.3319C96.4371 39.5521 96.1619 39.7231 95.8374 39.8448C95.5186 39.9665 95.1593 40.0273 94.7595 40.0273Z" fill="black"/>
<path d="M98.4514 33.7687H101.32C101.691 33.7687 102.024 33.8238 102.32 33.9339C102.615 34.0382 102.864 34.183 103.067 34.3685C103.276 34.5539 103.435 34.7712 103.545 35.0204C103.655 35.2638 103.71 35.5275 103.71 35.8114C103.71 36.049 103.673 36.2663 103.597 36.4634C103.528 36.6604 103.429 36.8372 103.302 36.9936C103.18 37.1443 103.035 37.2776 102.867 37.3935C102.699 37.5094 102.517 37.605 102.32 37.6803L103.71 39.8535H102.233L100.972 37.8542H99.7553V39.8535H98.4514V33.7687ZM101.276 36.6372C101.647 36.6372 101.92 36.5619 102.094 36.4112C102.273 36.2548 102.363 36.0548 102.363 35.8114C102.363 35.568 102.273 35.371 102.094 35.2203C101.92 35.0639 101.647 34.9857 101.276 34.9857H99.7553V36.6372H101.276Z" fill="black"/>
<path d="M104.58 33.7687H105.884V39.8535H104.58V33.7687Z" fill="black"/>
<path d="M110.102 40.0273C109.621 40.0273 109.178 39.9433 108.773 39.7752C108.367 39.6072 108.013 39.3783 107.712 39.0885C107.411 38.7988 107.176 38.4598 107.008 38.0715C106.84 37.6774 106.756 37.2573 106.756 36.8111C106.756 36.3649 106.84 35.9476 107.008 35.5594C107.176 35.1653 107.411 34.8234 107.712 34.5336C108.013 34.2439 108.367 34.015 108.773 33.8469C109.178 33.6789 109.621 33.5948 110.102 33.5948C110.578 33.5948 111.018 33.6789 111.424 33.8469C111.835 34.015 112.192 34.2439 112.493 34.5336C112.794 34.8234 113.029 35.1653 113.197 35.5594C113.365 35.9476 113.449 36.3649 113.449 36.8111C113.449 37.2573 113.365 37.6774 113.197 38.0715C113.029 38.4598 112.794 38.7988 112.493 39.0885C112.192 39.3783 111.835 39.6072 111.424 39.7752C111.018 39.9433 110.578 40.0273 110.102 40.0273ZM110.102 38.8104C110.386 38.8104 110.647 38.7611 110.885 38.6626C111.122 38.5641 111.328 38.4279 111.502 38.254C111.676 38.0744 111.812 37.8629 111.91 37.6195C112.009 37.3761 112.058 37.1066 112.058 36.8111C112.058 36.5155 112.009 36.2461 111.91 36.0027C111.812 35.7593 111.676 35.5507 111.502 35.3768C111.328 35.1972 111.122 35.0581 110.885 34.9596C110.647 34.8611 110.386 34.8118 110.102 34.8118C109.819 34.8118 109.558 34.8611 109.32 34.9596C109.083 35.0581 108.877 35.1972 108.703 35.3768C108.529 35.5507 108.393 35.7593 108.294 36.0027C108.196 36.2461 108.147 36.5155 108.147 36.8111C108.147 37.1066 108.196 37.3761 108.294 37.6195C108.393 37.8629 108.529 38.0744 108.703 38.254C108.877 38.4279 109.083 38.5641 109.32 38.6626C109.558 38.7611 109.819 38.8104 110.102 38.8104Z" fill="black"/>
<path d="M116.881 40.0273C116.481 40.0273 116.119 39.9665 115.795 39.8448C115.476 39.7231 115.204 39.5521 114.978 39.3319C114.752 39.1117 114.578 38.8451 114.456 38.5322C114.334 38.2135 114.274 37.8571 114.274 37.463V33.7687H115.577V37.463C115.577 37.8803 115.696 38.2106 115.934 38.454C116.171 38.6916 116.487 38.8104 116.881 38.8104C117.275 38.8104 117.591 38.6916 117.829 38.454C118.066 38.2106 118.185 37.8803 118.185 37.463V33.7687H119.489V37.463C119.489 37.8571 119.428 38.2135 119.306 38.5322C119.185 38.8451 119.011 39.1117 118.785 39.3319C118.559 39.5521 118.284 39.7231 117.959 39.8448C117.64 39.9665 117.281 40.0273 116.881 40.0273Z" fill="black"/>
<path d="M122.964 40.0273C122.662 40.0273 122.393 39.9954 122.155 39.9317C121.918 39.8737 121.706 39.7984 121.521 39.7057C121.335 39.6072 121.173 39.4971 121.034 39.3754C120.901 39.2479 120.788 39.1175 120.695 38.9842C120.469 38.6771 120.312 38.3294 120.226 37.9411H121.573C121.625 38.115 121.709 38.2685 121.825 38.4018C121.923 38.5177 122.063 38.622 122.242 38.7147C122.428 38.8075 122.668 38.8538 122.964 38.8538C123.375 38.8538 123.665 38.7872 123.833 38.6539C124.007 38.5206 124.094 38.3555 124.094 38.1584C124.094 37.973 124.004 37.8281 123.824 37.7238C123.65 37.6195 123.427 37.5297 123.155 37.4543C122.888 37.3732 122.599 37.295 122.286 37.2196C121.978 37.1385 121.689 37.0313 121.416 36.898C121.15 36.7589 120.927 36.5793 120.747 36.3591C120.573 36.1331 120.486 35.8346 120.486 35.4637C120.486 35.2146 120.538 34.977 120.643 34.751C120.753 34.5249 120.906 34.3279 121.103 34.1599C121.306 33.986 121.553 33.8498 121.842 33.7513C122.132 33.647 122.462 33.5948 122.833 33.5948C123.117 33.5948 123.369 33.6238 123.59 33.6818C123.81 33.7339 124.004 33.8035 124.172 33.8904C124.346 33.9773 124.494 34.0787 124.615 34.1946C124.743 34.3047 124.85 34.4177 124.937 34.5336C125.14 34.8118 125.279 35.1218 125.354 35.4637H124.007C123.972 35.3362 123.905 35.2203 123.807 35.116C123.726 35.0291 123.607 34.9509 123.45 34.8813C123.3 34.806 123.094 34.7683 122.833 34.7683C122.486 34.7683 122.231 34.835 122.068 34.9683C121.912 35.0958 121.834 35.2464 121.834 35.4203C121.834 35.5594 121.886 35.6753 121.99 35.768C122.094 35.8607 122.231 35.9418 122.399 36.0114C122.567 36.0751 122.758 36.1331 122.972 36.1852C123.193 36.2374 123.413 36.2953 123.633 36.3591C123.859 36.4228 124.079 36.4981 124.294 36.5851C124.514 36.672 124.708 36.7821 124.876 36.9154C125.044 37.0487 125.18 37.2138 125.285 37.4109C125.389 37.6021 125.441 37.8368 125.441 38.115C125.441 38.3699 125.389 38.6133 125.285 38.8451C125.18 39.0769 125.024 39.2798 124.815 39.4536C124.607 39.6275 124.346 39.7665 124.033 39.8708C123.726 39.9752 123.369 40.0273 122.964 40.0273Z" fill="black"/>
<path d="M128.748 33.7687H130.052V36.1591H132.746V33.7687H134.05V39.8535H132.746V37.3761H130.052V39.8535H128.748V33.7687Z" fill="black"/>
<path d="M138.268 40.0273C137.787 40.0273 137.344 39.9433 136.938 39.7752C136.533 39.6072 136.179 39.3783 135.878 39.0885C135.576 38.7988 135.342 38.4598 135.174 38.0715C135.006 37.6774 134.922 37.2573 134.922 36.8111C134.922 36.3649 135.006 35.9476 135.174 35.5594C135.342 35.1653 135.576 34.8234 135.878 34.5336C136.179 34.2439 136.533 34.015 136.938 33.8469C137.344 33.6789 137.787 33.5948 138.268 33.5948C138.743 33.5948 139.184 33.6789 139.59 33.8469C140.001 34.015 140.357 34.2439 140.659 34.5336C140.96 34.8234 141.195 35.1653 141.363 35.5594C141.531 35.9476 141.615 36.3649 141.615 36.8111C141.615 37.2573 141.531 37.6774 141.363 38.0715C141.195 38.4598 140.96 38.7988 140.659 39.0885C140.357 39.3783 140.001 39.6072 139.59 39.7752C139.184 39.9433 138.743 40.0273 138.268 40.0273ZM138.268 38.8104C138.552 38.8104 138.813 38.7611 139.051 38.6626C139.288 38.5641 139.494 38.4279 139.668 38.254C139.842 38.0744 139.978 37.8629 140.076 37.6195C140.175 37.3761 140.224 37.1066 140.224 36.8111C140.224 36.5155 140.175 36.2461 140.076 36.0027C139.978 35.7593 139.842 35.5507 139.668 35.3768C139.494 35.1972 139.288 35.0581 139.051 34.9596C138.813 34.8611 138.552 34.8118 138.268 34.8118C137.984 34.8118 137.724 34.8611 137.486 34.9596C137.248 35.0581 137.043 35.1972 136.869 35.3768C136.695 35.5507 136.559 35.7593 136.46 36.0027C136.362 36.2461 136.312 36.5155 136.312 36.8111C136.312 37.1066 136.362 37.3761 136.46 37.6195C136.559 37.8629 136.695 38.0744 136.869 38.254C137.043 38.4279 137.248 38.5641 137.486 38.6626C137.724 38.7611 137.984 38.8104 138.268 38.8104Z" fill="black"/>
<path d="M142.483 33.7687H144.439L145.916 37.2457H146.134L147.611 33.7687H149.567V39.8535H148.263V35.9853L148.35 35.203H148.263L146.872 38.4627H145.177L143.787 35.203H143.7L143.787 35.9853V39.8535H142.483V33.7687Z" fill="black"/>
<path d="M150.657 33.7687H155.221V34.9857H151.961V36.2026H154.569V37.3326H151.961V38.6365H155.221V39.8535H150.657V33.7687Z" fill="black"/>
<path d="M158.523 40.0273C158.222 40.0273 157.952 39.9954 157.715 39.9317C157.477 39.8737 157.266 39.7984 157.08 39.7057C156.895 39.6072 156.733 39.4971 156.593 39.3754C156.46 39.2479 156.347 39.1175 156.254 38.9842C156.028 38.6771 155.872 38.3294 155.785 37.9411H157.132C157.185 38.115 157.269 38.2685 157.384 38.4018C157.483 38.5177 157.622 38.622 157.802 38.7147C157.987 38.8075 158.228 38.8538 158.523 38.8538C158.935 38.8538 159.224 38.7872 159.392 38.6539C159.566 38.5206 159.653 38.3555 159.653 38.1584C159.653 37.973 159.563 37.8281 159.384 37.7238C159.21 37.6195 158.987 37.5297 158.714 37.4543C158.448 37.3732 158.158 37.295 157.845 37.2196C157.538 37.1385 157.248 37.0313 156.976 36.898C156.709 36.7589 156.486 36.5793 156.307 36.3591C156.133 36.1331 156.046 35.8346 156.046 35.4637C156.046 35.2146 156.098 34.977 156.202 34.751C156.312 34.5249 156.466 34.3279 156.663 34.1599C156.866 33.986 157.112 33.8498 157.402 33.7513C157.692 33.647 158.022 33.5948 158.393 33.5948C158.677 33.5948 158.929 33.6238 159.149 33.6818C159.369 33.7339 159.563 33.8035 159.731 33.8904C159.905 33.9773 160.053 34.0787 160.175 34.1946C160.302 34.3047 160.409 34.4177 160.496 34.5336C160.699 34.8118 160.838 35.1218 160.914 35.4637H159.566C159.532 35.3362 159.465 35.2203 159.366 35.116C159.285 35.0291 159.166 34.9509 159.01 34.8813C158.859 34.806 158.654 34.7683 158.393 34.7683C158.045 34.7683 157.79 34.835 157.628 34.9683C157.471 35.0958 157.393 35.2464 157.393 35.4203C157.393 35.5594 157.445 35.6753 157.55 35.768C157.654 35.8607 157.79 35.9418 157.958 36.0114C158.126 36.0751 158.317 36.1331 158.532 36.1852C158.752 36.2374 158.972 36.2953 159.192 36.3591C159.419 36.4228 159.639 36.4981 159.853 36.5851C160.073 36.672 160.267 36.7821 160.436 36.9154C160.604 37.0487 160.74 37.2138 160.844 37.4109C160.948 37.6021 161.001 37.8368 161.001 38.115C161.001 38.3699 160.948 38.6133 160.844 38.8451C160.74 39.0769 160.583 39.2798 160.375 39.4536C160.166 39.6275 159.905 39.7665 159.592 39.8708C159.285 39.9752 158.929 40.0273 158.523 40.0273Z" fill="black"/>
</svg>
