<svg width="20" height="20" viewBox="0 0 20 20" fill="none" xmlns="http://www.w3.org/2000/svg">
<path d="M11.4149 2.24089L12.9395 5.29005C13.1474 5.71451 13.7018 6.12164 14.1696 6.1996L16.9329 6.65871C18.7 6.95323 19.1158 8.23526 17.8424 9.49997L15.6942 11.6482C15.3303 12.0121 15.1311 12.7137 15.2437 13.2161L15.8588 15.8755C16.3438 17.9805 15.2264 18.7947 13.364 17.6946L10.7739 16.1614C10.3062 15.8842 9.5352 15.8842 9.05877 16.1614L6.46872 17.6946C4.61497 18.7947 3.48886 17.9718 3.97395 15.8755L4.58898 13.2161C4.70159 12.7137 4.50236 12.0121 4.13853 11.6482L1.99026 9.49997C0.725552 8.23526 1.13268 6.95323 2.89981 6.65871L5.66312 6.1996C6.12222 6.12164 6.67662 5.71451 6.88451 5.29005L8.40909 2.24089C9.24068 0.586371 10.592 0.586371 11.4149 2.24089Z" fill="white" stroke="white" stroke-width="1.92468" stroke-linecap="round" stroke-linejoin="round"/>
</svg>
