<svg width="21" height="20" viewBox="0 0 21 20" fill="none" xmlns="http://www.w3.org/2000/svg">
<path d="M11.997 2.24089L13.5216 5.29005C13.7295 5.71451 14.2838 6.12164 14.7516 6.1996L17.5149 6.65871C19.282 6.95323 19.6978 8.23526 18.4245 9.49997L16.2762 11.6482C15.9124 12.0121 15.7131 12.7137 15.8258 13.2161L16.4408 15.8755C16.9259 17.9805 15.8084 18.7947 13.946 17.6946L11.356 16.1614C10.8882 15.8842 10.1172 15.8842 9.6408 16.1614L7.05075 17.6946C5.197 18.7947 4.07089 17.9718 4.55598 15.8755L5.17101 13.2161C5.28362 12.7137 5.08439 12.0121 4.72057 11.6482L2.57229 9.49997C1.30758 8.23526 1.71472 6.95323 3.48184 6.65871L6.24515 6.1996C6.70425 6.12164 7.25865 5.71451 7.46654 5.29005L8.99113 2.24089C9.82272 0.586371 11.174 0.586371 11.997 2.24089Z" fill="white" stroke="white" stroke-width="1.92468" stroke-linecap="round" stroke-linejoin="round"/>
</svg>
