<svg width="20" height="20" viewBox="0 0 20 20" fill="none" xmlns="http://www.w3.org/2000/svg">
<path d="M11.578 2.24089L13.1026 5.29005C13.3105 5.71451 13.8649 6.12164 14.3327 6.1996L17.096 6.65871C18.8631 6.95323 19.2789 8.23526 18.0055 9.49997L15.8573 11.6482C15.4934 12.0121 15.2942 12.7137 15.4068 13.2161L16.0218 15.8755C16.5069 17.9805 15.3895 18.7947 13.5271 17.6946L10.937 16.1614C10.4692 15.8842 9.69829 15.8842 9.22186 16.1614L6.6318 17.6946C4.77805 18.7947 3.65194 17.9718 4.13704 15.8755L4.75206 13.2161C4.86468 12.7137 4.66544 12.0121 4.30162 11.6482L2.15335 9.49997C0.888638 8.23526 1.29577 6.95323 3.0629 6.65871L5.8262 6.1996C6.28531 6.12164 6.8397 5.71451 7.0476 5.29005L8.57218 2.24089C9.40377 0.586371 10.7551 0.586371 11.578 2.24089Z" fill="white" stroke="white" stroke-width="1.92468" stroke-linecap="round" stroke-linejoin="round"/>
</svg>
