<svg width="49" height="49" viewBox="0 0 49 49" fill="none" xmlns="http://www.w3.org/2000/svg">
<path d="M26.5413 44.9167H10.208C6.12467 44.9167 4.08301 42.875 4.08301 38.7917V22.4584C4.08301 18.375 6.12467 16.3334 10.208 16.3334H20.4163V38.7917C20.4163 42.875 22.458 44.9167 26.5413 44.9167Z" stroke="#028090" stroke-width="3.0625" stroke-miterlimit="10" stroke-linecap="round" stroke-linejoin="round"/>
<path d="M20.6409 8.16663C20.4776 8.77913 20.4163 9.45288 20.4163 10.2083V16.3333H10.208V12.25C10.208 10.0041 12.0455 8.16663 14.2913 8.16663H20.6409Z" stroke="#028090" stroke-width="3.0625" stroke-miterlimit="10" stroke-linecap="round" stroke-linejoin="round"/>
<path d="M28.583 16.3334V26.5417" stroke="#028090" stroke-width="3.0625" stroke-miterlimit="10" stroke-linecap="round" stroke-linejoin="round"/>
<path d="M36.75 16.3334V26.5417" stroke="#028090" stroke-width="3.0625" stroke-miterlimit="10" stroke-linecap="round" stroke-linejoin="round"/>
<path d="M34.708 34.7084H30.6247C29.5018 34.7084 28.583 35.6271 28.583 36.75V44.9167H36.7497V36.75C36.7497 35.6271 35.8309 34.7084 34.708 34.7084Z" stroke="#028090" stroke-width="3.0625" stroke-miterlimit="10" stroke-linecap="round" stroke-linejoin="round"/>
<path d="M12.25 26.5416V34.7083" stroke="#028090" stroke-width="3.0625" stroke-miterlimit="10" stroke-linecap="round" stroke-linejoin="round"/>
<path d="M20.417 38.7917V10.2084C20.417 6.12504 22.4587 4.08337 26.542 4.08337H38.792C42.8753 4.08337 44.917 6.12504 44.917 10.2084V38.7917C44.917 42.875 42.8753 44.9167 38.792 44.9167H26.542C22.4587 44.9167 20.417 42.875 20.417 38.7917Z" stroke="#028090" stroke-width="3.0625" stroke-miterlimit="10" stroke-linecap="round" stroke-linejoin="round"/>
</svg>
