<svg width="49" height="49" viewBox="0 0 49 49" fill="none" xmlns="http://www.w3.org/2000/svg">
<path d="M25.5212 44.9169H8.33038C5.96204 44.9169 4.02246 43.0182 4.02246 40.6907V10.3923C4.02246 5.04318 8.00371 2.6136 12.8833 5.00235L21.9483 9.45318C23.9083 10.4128 25.5212 12.9648 25.5212 15.129V44.9169Z" stroke="#888888" stroke-width="3.0625" stroke-linecap="round" stroke-linejoin="round"/>
<path d="M44.8551 30.7479V38.4654C44.8551 42.8754 42.8134 44.917 38.4034 44.917H25.5205V21.2745L26.4801 21.4787L35.6676 23.5408L39.8122 24.4595C42.5072 25.0516 44.7122 26.44 44.8347 30.36C44.8551 30.4825 44.8551 30.605 44.8551 30.7479Z" stroke="#888888" stroke-width="3.0625" stroke-linecap="round" stroke-linejoin="round"/>
<path d="M11.2295 18.3752H18.3141" stroke="#888888" stroke-width="3.0625" stroke-linecap="round" stroke-linejoin="round"/>
<path d="M11.2295 26.5419H18.3141" stroke="#888888" stroke-width="3.0625" stroke-linecap="round" stroke-linejoin="round"/>
<path d="M35.668 23.5407V30.1149C35.668 32.6466 33.6059 34.7086 31.0742 34.7086C28.5426 34.7086 26.4805 32.6466 26.4805 30.1149V21.4786L35.668 23.5407Z" stroke="#888888" stroke-width="3.0625" stroke-linecap="round" stroke-linejoin="round"/>
<path d="M44.8351 30.3599C44.7126 32.7691 42.7117 34.7087 40.2617 34.7087C37.7301 34.7087 35.668 32.6466 35.668 30.1149V23.5408L39.8126 24.4595C42.5076 25.0516 44.7126 26.4399 44.8351 30.3599Z" stroke="#888888" stroke-width="3.0625" stroke-linecap="round" stroke-linejoin="round"/>
</svg>
