<svg width="49" height="49" viewBox="0 0 49 49" fill="none" xmlns="http://www.w3.org/2000/svg">
<path d="M13.6789 36.75H8.47264C5.55306 36.75 4.08301 35.28 4.08301 32.3604V8.47301C4.08301 5.55342 5.55306 4.08337 8.47264 4.08337H17.2518C20.1714 4.08337 21.6413 5.55342 21.6413 8.47301V12.25" stroke="#888888" stroke-width="3.0625" stroke-miterlimit="10" stroke-linecap="round" stroke-linejoin="round"/>
<path d="M35.4633 17.1908V39.9759C35.4633 43.263 33.83 44.9167 30.5429 44.9167H18.6195C15.3324 44.9167 13.6787 43.263 13.6787 39.9759V17.1908C13.6787 13.9037 15.3324 12.25 18.6195 12.25H30.5429C33.83 12.25 35.4633 13.9037 35.4633 17.1908Z" stroke="#888888" stroke-width="3.0625" stroke-miterlimit="10" stroke-linecap="round" stroke-linejoin="round"/>
<path d="M27.3584 12.25V8.47301C27.3584 5.55342 28.8283 4.08337 31.7479 4.08337H40.527C43.4466 4.08337 44.9167 5.55342 44.9167 8.47301V32.3604C44.9167 35.28 43.4466 36.75 40.527 36.75H35.4638" stroke="#888888" stroke-width="3.0625" stroke-miterlimit="10" stroke-linecap="round" stroke-linejoin="round"/>
<path d="M20.417 22.4584H28.5837" stroke="#888888" stroke-width="3.0625" stroke-miterlimit="10" stroke-linecap="round" stroke-linejoin="round"/>
<path d="M20.417 28.5834H28.5837" stroke="#888888" stroke-width="3.0625" stroke-miterlimit="10" stroke-linecap="round" stroke-linejoin="round"/>
<path d="M24.5 44.9166V38.7916" stroke="#888888" stroke-width="3.0625" stroke-miterlimit="10" stroke-linecap="round" stroke-linejoin="round"/>
</svg>
