<svg width="20" height="20" viewBox="0 0 20 20" fill="none" xmlns="http://www.w3.org/2000/svg">
<path d="M11.1601 2.24089L12.6846 5.29005C12.8925 5.71451 13.4469 6.12164 13.9147 6.1996L16.678 6.65871C18.4451 6.95323 18.8609 8.23526 17.5876 9.49997L15.4393 11.6482C15.0755 12.0121 14.8762 12.7137 14.9888 13.2161L15.6039 15.8755C16.089 17.9805 14.9715 18.7947 13.1091 17.6946L10.519 16.1614C10.0513 15.8842 9.28032 15.8842 8.80389 16.1614L6.21384 17.6946C4.36008 18.7947 3.23397 17.9718 3.71907 15.8755L4.3341 13.2161C4.44671 12.7137 4.24747 12.0121 3.88365 11.6482L1.73538 9.49997C0.470669 8.23526 0.877802 6.95323 2.64493 6.65871L5.40823 6.1996C5.86734 6.12164 6.42173 5.71451 6.62963 5.29005L8.15421 2.24089C8.9858 0.586371 10.3371 0.586371 11.1601 2.24089Z" fill="#191919" stroke="white" stroke-width="1.92468" stroke-linecap="round" stroke-linejoin="round"/>
</svg>
