<svg width="49" height="49" viewBox="0 0 49 49" fill="none" xmlns="http://www.w3.org/2000/svg">
<path d="M4.08301 44.9166H44.9163" stroke="#888888" stroke-width="3.0625" stroke-miterlimit="10" stroke-linecap="round" stroke-linejoin="round"/>
<path d="M6.02246 44.9168L6.12454 20.3554C6.12454 19.11 6.71663 17.926 7.69663 17.1501L21.9883 6.02303C23.4583 4.87969 25.5204 4.87969 27.0108 6.02303L41.3025 17.1297C42.3029 17.9055 42.8745 19.0896 42.8745 20.3554V44.9168" stroke="#888888" stroke-width="3.0625" stroke-miterlimit="10" stroke-linejoin="round"/>
<path d="M26.5413 34.7084H22.458C20.7634 34.7084 19.3955 36.0763 19.3955 37.7709V44.9167H29.6038V37.7709C29.6038 36.0763 28.2359 34.7084 26.5413 34.7084Z" stroke="#888888" stroke-width="3.0625" stroke-miterlimit="10" stroke-linejoin="round"/>
<path d="M19.3955 28.073H15.3122C14.1893 28.073 13.2705 27.1542 13.2705 26.0313V22.9688C13.2705 21.8459 14.1893 20.9271 15.3122 20.9271H19.3955C20.5184 20.9271 21.4372 21.8459 21.4372 22.9688V26.0313C21.4372 27.1542 20.5184 28.073 19.3955 28.073Z" stroke="#888888" stroke-width="3.0625" stroke-miterlimit="10" stroke-linejoin="round"/>
<path d="M33.6875 28.073H29.6042C28.4813 28.073 27.5625 27.1542 27.5625 26.0313V22.9688C27.5625 21.8459 28.4813 20.9271 29.6042 20.9271H33.6875C34.8104 20.9271 35.7292 21.8459 35.7292 22.9688V26.0313C35.7292 27.1542 34.8104 28.073 33.6875 28.073Z" stroke="#888888" stroke-width="3.0625" stroke-miterlimit="10" stroke-linejoin="round"/>
<path d="M38.7917 14.2916L38.7304 8.16663H29.7471" stroke="#888888" stroke-width="3.0625" stroke-miterlimit="10" stroke-linecap="round" stroke-linejoin="round"/>
</svg>
