<svg width="18" height="18" viewBox="0 0 18 18" fill="none" xmlns="http://www.w3.org/2000/svg">
<path d="M9.97434 1.66841L9.97524 1.67021L11.4983 4.71638C11.6886 5.10261 11.9984 5.42023 12.3061 5.64724C12.6154 5.87548 13.0095 6.07634 13.4307 6.14654L13.4312 6.14662L16.194 6.60565C16.1942 6.60567 16.1943 6.60569 16.1944 6.60572C16.1945 6.60572 16.1945 6.60572 16.1945 6.60573C16.9121 6.72543 17.0255 6.9863 17.0328 7.00929C17.0395 7.03012 17.1015 7.30573 16.5849 7.81883L16.5826 7.82115L14.4343 9.96942C14.1085 10.2952 13.8997 10.7198 13.7863 11.116C13.6727 11.5127 13.6261 11.9809 13.7259 12.4261L13.7259 12.4261L13.7274 12.4324L14.3422 15.0911C14.3422 15.0912 14.3423 15.0912 14.3423 15.0913C14.4445 15.5352 14.4449 15.8414 14.4104 16.028C14.3878 16.1502 14.3561 16.1978 14.3449 16.211C14.3289 16.2177 14.2731 16.234 14.1473 16.2181C13.9576 16.1941 13.6646 16.1003 13.2718 15.8684C13.2716 15.8683 13.2714 15.8681 13.2712 15.868L10.6823 14.3355C10.6822 14.3354 10.682 14.3353 10.6819 14.3352C10.2639 14.0876 9.77393 13.9935 9.33854 13.9935C8.90215 13.9935 8.41359 14.088 7.99494 14.3316L7.99493 14.3316L7.98869 14.3352L5.39863 15.8685L5.39772 15.869C5.00793 16.1004 4.71686 16.1932 4.5286 16.2167C4.39923 16.2328 4.34367 16.2148 4.32918 16.2081C4.31841 16.1963 4.28473 16.1492 4.26102 16.0224C4.22633 15.8368 4.22625 15.5324 4.32818 15.0919L4.32821 15.0918L4.94324 12.4324L4.94326 12.4325L4.94468 12.4261C5.04447 11.9809 4.99784 11.5127 4.88429 11.116C4.77087 10.7198 4.56208 10.2952 4.2363 9.96942L2.08803 7.82115C1.57472 7.30784 1.63417 7.03066 1.64155 7.00755C1.64864 6.98535 1.7595 6.72527 2.4761 6.60573C2.4762 6.60571 2.47631 6.60569 2.47641 6.60567C2.47647 6.60566 2.47652 6.60565 2.47658 6.60565L5.2394 6.14662L5.2394 6.14663L5.24278 6.14605C5.66063 6.0751 6.05224 5.87317 6.35874 5.64591C6.66405 5.41953 6.97345 5.10237 7.16356 4.71648L8.68579 1.67201C8.68589 1.67181 8.68599 1.67162 8.68609 1.67142C9.03238 0.982763 9.32218 0.96 9.33421 0.96C9.34452 0.96 9.63226 0.980647 9.97434 1.66841ZM14.3407 16.2151C14.3406 16.215 14.3415 16.2139 14.3437 16.2122C14.3419 16.2143 14.3408 16.2151 14.3407 16.2151ZM14.3465 16.2102C14.3486 16.2088 14.3499 16.2082 14.3499 16.2083C14.35 16.2084 14.3489 16.2091 14.3465 16.2102ZM4.32514 16.2058C4.3252 16.2057 4.32633 16.2063 4.32836 16.2077C4.3261 16.2066 4.32508 16.2059 4.32514 16.2058ZM4.32978 16.2087C4.3318 16.2103 4.33268 16.2112 4.33262 16.2113C4.33256 16.2114 4.33155 16.2106 4.32978 16.2087Z" stroke="#191919" stroke-width="1.92" stroke-linecap="round" stroke-linejoin="round"/>
</svg>
