<svg width="20" height="20" viewBox="0 0 20 20" fill="none" xmlns="http://www.w3.org/2000/svg">
<path d="M11.8339 2.24089L13.3585 5.29005C13.5664 5.71451 14.1208 6.12164 14.5885 6.1996L17.3518 6.65871C19.119 6.95323 19.5348 8.23526 18.2614 9.49997L16.1131 11.6482C15.7493 12.0121 15.5501 12.7137 15.6627 13.2161L16.2777 15.8755C16.7628 17.9805 15.6453 18.7947 13.7829 17.6946L11.1929 16.1614C10.7251 15.8842 9.95415 15.8842 9.47772 16.1614L6.88766 17.6946C5.03391 18.7947 3.9078 17.9718 4.39289 15.8755L5.00792 13.2161C5.12054 12.7137 4.9213 12.0121 4.55748 11.6482L2.40921 9.49997C1.1445 8.23526 1.55163 6.95323 3.31876 6.65871L6.08206 6.1996C6.54117 6.12164 7.09556 5.71451 7.30346 5.29005L8.82804 2.24089C9.65963 0.586371 11.011 0.586371 11.8339 2.24089Z" fill="white" stroke="white" stroke-width="1.92468" stroke-linecap="round" stroke-linejoin="round"/>
</svg>
