<svg width="49" height="49" viewBox="0 0 49 49" fill="none" xmlns="http://www.w3.org/2000/svg">
<path d="M25.5207 44.9161H8.32989C5.96156 44.9161 4.02197 43.0173 4.02197 40.6898V10.3915C4.02197 5.04233 8.00322 2.61274 12.8828 5.00149L21.9478 9.45233C23.9078 10.4119 25.5207 12.964 25.5207 15.1282V44.9161Z" stroke="#888888" stroke-width="3.0625" stroke-linecap="round" stroke-linejoin="round"/>
<path d="M44.8555 30.7487V38.4662C44.8555 42.8762 42.8138 44.9179 38.4038 44.9179H25.5209V21.2754L26.4805 21.4796L35.668 23.5416L39.8125 24.4604C42.5075 25.0525 44.7125 26.4408 44.835 30.3608C44.8555 30.4833 44.8555 30.6058 44.8555 30.7487Z" stroke="#888888" stroke-width="3.0625" stroke-linecap="round" stroke-linejoin="round"/>
<path d="M11.2291 18.375H18.3137" stroke="#888888" stroke-width="3.0625" stroke-linecap="round" stroke-linejoin="round"/>
<path d="M11.2291 26.541H18.3137" stroke="#888888" stroke-width="3.0625" stroke-linecap="round" stroke-linejoin="round"/>
<path d="M35.6678 23.5406V30.1148C35.6678 32.6464 33.6058 34.7085 31.0741 34.7085C28.5424 34.7085 26.4803 32.6464 26.4803 30.1148V21.4785L35.6678 23.5406Z" stroke="#888888" stroke-width="3.0625" stroke-linecap="round" stroke-linejoin="round"/>
<path d="M44.8349 30.3602C44.7124 32.7693 42.7116 34.7089 40.2616 34.7089C37.7299 34.7089 35.6678 32.6468 35.6678 30.1152V23.541L39.8124 24.4598C42.5074 25.0518 44.7124 26.4402 44.8349 30.3602Z" stroke="#888888" stroke-width="3.0625" stroke-linecap="round" stroke-linejoin="round"/>
</svg>
