<svg width="49" height="49" viewBox="0 0 49 49" fill="none" xmlns="http://www.w3.org/2000/svg">
<path d="M13.6792 36.7507H8.47301C5.55342 36.7507 4.08337 35.2806 4.08337 32.361V8.47362C4.08337 5.55403 5.55342 4.08398 8.47301 4.08398H17.2521C20.1717 4.08398 21.6417 5.55403 21.6417 8.47362V12.2507" stroke="#888888" stroke-width="3.0625" stroke-miterlimit="10" stroke-linecap="round" stroke-linejoin="round"/>
<path d="M35.4636 17.1908V39.9759C35.4636 43.263 33.8303 44.9167 30.5433 44.9167H18.6199C15.3328 44.9167 13.6791 43.263 13.6791 39.9759V17.1908C13.6791 13.9037 15.3328 12.25 18.6199 12.25H30.5433C33.8303 12.25 35.4636 13.9037 35.4636 17.1908Z" stroke="#888888" stroke-width="3.0625" stroke-miterlimit="10" stroke-linecap="round" stroke-linejoin="round"/>
<path d="M27.3582 12.2507V8.47362C27.3582 5.55403 28.8281 4.08398 31.7477 4.08398H40.5268C43.4464 4.08398 44.9164 5.55403 44.9164 8.47362V32.361C44.9164 35.2806 43.4464 36.7507 40.5268 36.7507H35.4635" stroke="#888888" stroke-width="3.0625" stroke-miterlimit="10" stroke-linecap="round" stroke-linejoin="round"/>
<path d="M20.4166 22.459H28.5833" stroke="#888888" stroke-width="3.0625" stroke-miterlimit="10" stroke-linecap="round" stroke-linejoin="round"/>
<path d="M20.4166 28.584H28.5833" stroke="#888888" stroke-width="3.0625" stroke-miterlimit="10" stroke-linecap="round" stroke-linejoin="round"/>
<path d="M24.5 44.916V38.791" stroke="#888888" stroke-width="3.0625" stroke-miterlimit="10" stroke-linecap="round" stroke-linejoin="round"/>
</svg>
