<svg width="49" height="49" viewBox="0 0 49 49" fill="none" xmlns="http://www.w3.org/2000/svg">
<path d="M26.5417 44.9173H10.2084C6.12504 44.9173 4.08337 42.8757 4.08337 38.7923V22.459C4.08337 18.3757 6.12504 16.334 10.2084 16.334H20.4167V38.7923C20.4167 42.8757 22.4584 44.9173 26.5417 44.9173Z" stroke="#888888" stroke-width="3.0625" stroke-miterlimit="10" stroke-linecap="round" stroke-linejoin="round"/>
<path d="M20.6413 8.16602C20.4779 8.77852 20.4167 9.45227 20.4167 10.2077V16.3327H10.2084V12.2493C10.2084 10.0035 12.0459 8.16602 14.2917 8.16602H20.6413Z" stroke="#888888" stroke-width="3.0625" stroke-miterlimit="10" stroke-linecap="round" stroke-linejoin="round"/>
<path d="M28.5834 16.334V26.5423" stroke="#888888" stroke-width="3.0625" stroke-miterlimit="10" stroke-linecap="round" stroke-linejoin="round"/>
<path d="M36.75 16.334V26.5423" stroke="#888888" stroke-width="3.0625" stroke-miterlimit="10" stroke-linecap="round" stroke-linejoin="round"/>
<path d="M34.7084 34.709H30.625C29.5021 34.709 28.5834 35.6277 28.5834 36.7507V44.9173H36.75V36.7507C36.75 35.6277 35.8313 34.709 34.7084 34.709Z" stroke="#888888" stroke-width="3.0625" stroke-miterlimit="10" stroke-linecap="round" stroke-linejoin="round"/>
<path d="M12.25 26.541V34.7077" stroke="#888888" stroke-width="3.0625" stroke-miterlimit="10" stroke-linecap="round" stroke-linejoin="round"/>
<path d="M20.4166 38.7923V10.209C20.4166 6.12565 22.4583 4.08398 26.5416 4.08398H38.7916C42.875 4.08398 44.9166 6.12565 44.9166 10.209V38.7923C44.9166 42.8756 42.875 44.9173 38.7916 44.9173H26.5416C22.4583 44.9173 20.4166 42.8756 20.4166 38.7923Z" stroke="#888888" stroke-width="3.0625" stroke-miterlimit="10" stroke-linecap="round" stroke-linejoin="round"/>
</svg>
