<svg width="49" height="49" viewBox="0 0 49 49" fill="none" xmlns="http://www.w3.org/2000/svg">
<path d="M4.08337 44.916H44.9167" stroke="#888888" stroke-width="3.0625" stroke-miterlimit="10" stroke-linecap="round" stroke-linejoin="round"/>
<path d="M6.02283 44.9172L6.12491 20.3559C6.12491 19.1105 6.71699 17.9265 7.69699 17.1506L21.9887 6.02352C23.4587 4.88018 25.5207 4.88018 27.0112 6.02352L41.3028 17.1302C42.3033 17.906 42.8749 19.0901 42.8749 20.3559V44.9172" stroke="#888888" stroke-width="3.0625" stroke-miterlimit="10" stroke-linejoin="round"/>
<path d="M26.5417 34.709H22.4584C20.7638 34.709 19.3959 36.0769 19.3959 37.7715V44.9173H29.6042V37.7715C29.6042 36.0769 28.2363 34.709 26.5417 34.709Z" stroke="#888888" stroke-width="3.0625" stroke-miterlimit="10" stroke-linejoin="round"/>
<path d="M19.3959 28.0736H15.3125C14.1896 28.0736 13.2709 27.1548 13.2709 26.0319V22.9694C13.2709 21.8465 14.1896 20.9277 15.3125 20.9277H19.3959C20.5188 20.9277 21.4375 21.8465 21.4375 22.9694V26.0319C21.4375 27.1548 20.5188 28.0736 19.3959 28.0736Z" stroke="#888888" stroke-width="3.0625" stroke-miterlimit="10" stroke-linejoin="round"/>
<path d="M33.6875 28.0736H29.6042C28.4813 28.0736 27.5625 27.1548 27.5625 26.0319V22.9694C27.5625 21.8465 28.4813 20.9277 29.6042 20.9277H33.6875C34.8104 20.9277 35.7292 21.8465 35.7292 22.9694V26.0319C35.7292 27.1548 34.8104 28.0736 33.6875 28.0736Z" stroke="#888888" stroke-width="3.0625" stroke-miterlimit="10" stroke-linejoin="round"/>
<path d="M38.7918 14.291L38.7305 8.16602H29.7472" stroke="#888888" stroke-width="3.0625" stroke-miterlimit="10" stroke-linecap="round" stroke-linejoin="round"/>
</svg>
